<svg width="161" height="41" viewBox="0 0 161 41" fill="none" xmlns="http://www.w3.org/2000/svg">
<g clip-path="url(#clip0_71_963)">
<path d="M89.4047 24.7696C91.8147 24.7696 93.7545 22.8418 93.7545 20.4467C93.7545 18.0516 91.8147 16.1238 89.4047 16.1238C86.9947 16.1238 85.0549 18.0516 85.0549 20.4467C85.0549 22.8418 86.9947 24.7696 89.4047 24.7696Z" fill="blue"/>
<path d="M66.6579 11.8592C67.6643 11.8592 68.4801 11.0484 68.4801 10.0483C68.4801 9.0481 67.6643 8.2373 66.6579 8.2373C65.6515 8.2373 64.8357 9.0481 64.8357 10.0483C64.8357 11.0484 65.6515 11.8592 66.6579 11.8592Z" fill="blue"/>
<path d="M82.5284 20.2715L70.1257 25.237C70.6548 25.8796 71.0662 26.639 71.3601 27.3985L82.9399 22.7835C82.646 22.0824 82.5284 21.2646 82.5284 20.4467C82.5284 20.3883 82.5284 20.3299 82.5284 20.2715Z" fill="blue"/>
<path d="M70.0078 10.9246C69.7727 11.8008 69.2436 12.5018 68.4795 12.9692L82.5868 19.8625C82.6456 18.9862 82.8807 18.1684 83.2922 17.409L70.0078 10.9246Z" fill="blue"/>
<path d="M9.46367 0.701172H0V39.6076H9.46367V0.701172Z" fill="blue"/>
<path d="M38.1485 21.498L26.5099 0.701172H16.1646V39.6076H25.9221V18.9276L37.6782 39.6076H47.9648V0.701172H38.1485V21.498Z" fill="blue"/>
<path d="M68.715 30.2022C68.715 30.0269 68.6562 29.8517 68.6562 29.7348C68.6562 29.6764 68.6562 29.6764 68.6562 29.618C68.5387 29.0922 68.3623 28.5665 68.1272 28.0991C68.1272 28.0991 68.1272 28.0407 68.0684 28.0407C68.0096 27.9239 67.8921 27.7486 67.8333 27.6318C67.8333 27.5733 67.7745 27.5733 67.7745 27.5149C67.7157 27.3981 67.5982 27.2813 67.5394 27.1644L67.4806 27.106C67.363 26.9892 67.3043 26.8723 67.1867 26.7555L67.1279 26.6971C67.0104 26.5802 66.8928 26.4634 66.7752 26.3466L66.7165 26.2882C66.5989 26.1713 66.4813 26.0545 66.3638 25.9961C66.3638 25.9961 66.3638 25.9961 66.305 25.9376C66.1874 25.8208 66.0111 25.7624 65.8935 25.6456C65.7172 25.5287 65.5996 25.4703 65.4233 25.4119C65.2469 25.295 65.0118 25.2366 64.8355 25.1782H64.7767C64.6004 25.1198 64.424 25.0614 64.2477 25.003C64.1889 25.003 64.1889 25.003 64.1301 24.9445C63.9538 24.8861 63.7774 24.8861 63.6011 24.8277C63.5423 24.8277 63.4835 24.8277 63.4247 24.8277C63.1896 24.8277 62.9545 24.7693 62.7194 24.7693C59.3689 24.7693 56.6062 27.5149 56.6062 30.8448C56.6062 31.02 56.6062 31.1953 56.6062 31.3705C56.6062 31.721 56.665 32.0131 56.7825 32.3052C56.9589 33.0646 57.3116 33.7657 57.7818 34.4083C58.2521 35.0509 58.8399 35.5766 59.4864 35.9855C60.2506 36.4529 61.1911 36.745 62.1316 36.8618C62.3079 36.8618 62.4843 36.8618 62.6018 36.8618C65.9523 36.8618 68.715 34.1162 68.715 30.7863C68.715 30.6111 68.715 30.4358 68.715 30.2022Z" fill="blue"/>
<path d="M66.6579 11.8592C67.6643 11.8592 68.4801 11.0484 68.4801 10.0483C68.4801 9.0481 67.6643 8.2373 66.6579 8.2373C65.6515 8.2373 64.8357 9.0481 64.8357 10.0483C64.8357 11.0484 65.6515 11.8592 66.6579 11.8592Z" fill="blue"/>
<path d="M62.6024 21.4394C63.0727 21.4394 63.5429 21.4978 64.0131 21.5562C63.9544 21.0889 63.8956 20.5631 63.8956 20.0958C63.8956 17.467 64.7773 15.2471 66.188 13.4946C64.4834 13.2609 63.1314 11.8589 63.1314 10.0479C63.1314 8.1201 64.7185 6.60123 66.5995 6.60123C68.4805 6.60123 70.0675 8.17852 70.0675 10.0479C70.0675 10.2816 70.0088 10.5152 70.0088 10.7489C71.1844 10.2816 72.4775 10.0479 73.8883 10.0479C78.5319 10.0479 82.2351 12.7935 83.4695 16.9412C84.6451 14.955 86.82 13.6114 89.3476 13.6114C91.4049 13.6114 93.2271 14.4877 94.4615 15.9481C92.6393 7.18541 85.0566 0 73.8883 0C61.1329 0 52.9624 9.52213 52.9624 19.979C52.9624 22.3741 53.3151 24.6524 54.0205 26.8139C55.6075 23.6593 58.8405 21.4394 62.6024 21.4394Z" fill="blue"/>
<path d="M89.4058 27.2227C86.8194 27.2227 84.527 25.7623 83.4102 23.6008C82.0582 27.5148 78.4726 30.2021 74.0053 30.2021C73.3587 30.2021 72.7121 30.1436 72.0655 30.0268C72.0655 30.2605 72.1243 30.5526 72.1243 30.7862C72.1243 34.4666 69.9494 37.6796 66.8928 39.1984C69.0677 39.8994 71.4777 40.25 74.0053 40.25C84.7621 40.25 92.286 33.824 94.3434 25.1197C93.0502 26.4049 91.3455 27.2227 89.4058 27.2227Z" fill="blue"/>
<path d="M89.4047 16.1238C86.9947 16.1238 85.0549 18.0516 85.0549 20.4467C85.0549 22.8418 86.9947 24.7696 89.4047 24.7696C91.8147 24.7696 93.7545 22.8418 93.7545 20.4467C93.7545 18.0516 91.7559 16.1238 89.4047 16.1238Z" fill="blue"/>
<path d="M108.391 0.701172H99.927V39.6076H108.391C122.91 39.6076 130.669 29.7933 130.669 19.9791C130.669 10.5154 122.91 0.701172 108.391 0.701172ZM109.743 30.2023V10.1649C115.504 10.1649 120.559 13.7868 120.559 19.9791C120.559 26.1714 115.504 30.2023 109.743 30.2023Z" fill="blue"/>
<path d="M145.422 30.1438V24.3605H158.589V15.4225H145.422V9.8728H160.411V0.701172H135.723V39.6076H160.999V30.1438H145.422Z" fill="blue"/>
</g>
<defs>
<clipPath id="clip0_71_963">
<rect width="161" height="40.25" fill="blue"/>
</clipPath>
</defs>
</svg>
